<?xml version="1.0" encoding="UTF-8"?>
<!DOCTYPE svg PUBLIC "-//W3C//DTD SVG 1.1//EN" "http://www.w3.org/Graphics/SVG/1.1/DTD/svg11.dtd">
<svg xmlns="http://www.w3.org/2000/svg" version="1.1" width="341px" height="83px" style="shape-rendering:geometricPrecision; text-rendering:geometricPrecision; image-rendering:optimizeQuality; fill-rule:evenodd; clip-rule:evenodd" xmlns:xlink="http://www.w3.org/1999/xlink">
<g><path style="opacity:1" fill="#fdfdfe" d="M -0.5,-0.5 C 113.167,-0.5 226.833,-0.5 340.5,-0.5C 340.5,27.1667 340.5,54.8333 340.5,82.5C 226.833,82.5 113.167,82.5 -0.5,82.5C -0.5,54.8333 -0.5,27.1667 -0.5,-0.5 Z"/></g>
<g><path style="opacity:1" fill="#ddeaf7" d="M 69.5,30.5 C 70.2298,25.2681 73.2298,22.1015 78.5,21C 80.4644,18.8325 80.7978,16.4992 79.5,14C 76.8333,14 74.1667,14 71.5,14C 69.771,12.2111 69.1043,10.0444 69.5,7.5C 68.0695,7.42082 66.7362,7.75415 65.5,8.5C 64.4824,10.5939 63.4824,12.5939 62.5,14.5C 61.2339,9.30895 62.9006,5.64229 67.5,3.5C 69.8169,5.31604 71.9835,7.31604 74,9.5C 75.4659,7.6751 77.2992,7.1751 79.5,8C 88.9458,17.9529 86.9458,24.1196 73.5,26.5C 72.4787,28.188 71.1454,29.5213 69.5,30.5 Z"/></g>
<g><path style="opacity:1" fill="#66bbfd" d="M 69.5,30.5 C 67.1707,32.0024 65.8373,31.3357 65.5,28.5C 66.1499,28.8039 66.8165,29.1373 67.5,29.5C 68.9016,26.463 70.2349,23.463 71.5,20.5C 73.1667,20.5 74.8333,20.5 76.5,20.5C 76.5,19.1667 76.5,17.8333 76.5,16.5C 72.3303,17.0072 69.3303,15.3405 67.5,11.5C 65.981,12.8513 64.6477,14.3513 63.5,16C 60.7549,16.0532 58.7549,17.2198 57.5,19.5C 58.2427,20.1818 58.9094,20.8485 59.5,21.5C 57.0516,21.9899 55.385,21.1566 54.5,19C 55.4299,16.5646 57.0966,15.0646 59.5,14.5C 60.5,14.5 61.5,14.5 62.5,14.5C 63.4824,12.5939 64.4824,10.5939 65.5,8.5C 66.7362,7.75415 68.0695,7.42082 69.5,7.5C 69.1043,10.0444 69.771,12.2111 71.5,14C 74.1667,14 76.8333,14 79.5,14C 80.7978,16.4992 80.4644,18.8325 78.5,21C 73.2298,22.1015 70.2298,25.2681 69.5,30.5 Z"/></g>
<g><path style="opacity:1" fill="#219dfb" d="M 65.5,28.5 C 63.9328,27.3192 63.0995,25.6526 63,23.5C 62.1841,22.1772 61.0174,21.5106 59.5,21.5C 58.9094,20.8485 58.2427,20.1818 57.5,19.5C 58.7549,17.2198 60.7549,16.0532 63.5,16C 64.6477,14.3513 65.981,12.8513 67.5,11.5C 69.3303,15.3405 72.3303,17.0072 76.5,16.5C 76.5,17.8333 76.5,19.1667 76.5,20.5C 74.8333,20.5 73.1667,20.5 71.5,20.5C 70.2349,23.463 68.9016,26.463 67.5,29.5C 66.8165,29.1373 66.1499,28.8039 65.5,28.5 Z"/></g>
<g><path style="opacity:1" fill="#c4e6ff" d="M 44.5,24.5 C 41.9451,22.1032 39.9451,19.2698 38.5,16C 37.2068,15.51 35.8734,15.3433 34.5,15.5C 33.7212,20.4725 31.7212,24.8058 28.5,28.5C 28.5,26.8333 28.5,25.1667 28.5,23.5C 29.5,23.5 30.5,23.5 31.5,23.5C 31.4129,20.2613 32.0795,17.2613 33.5,14.5C 36.1667,14.5 38.8333,14.5 41.5,14.5C 42.5614,17.8635 43.5614,21.1968 44.5,24.5 Z"/></g>
<g><path style="opacity:1" fill="#6dbefd" d="M 44.5,24.5 C 44.5,24.8333 44.5,25.1667 44.5,25.5C 44.5,26.5 44.5,27.5 44.5,28.5C 41.4455,25.6081 38.9455,22.2748 37,18.5C 35.0044,23.6237 32.171,28.1237 28.5,32C 23.7645,34.8535 18.7645,37.0202 13.5,38.5C 12.6172,29.547 16.1172,27.2137 24,31.5C 25.9416,31.0414 27.4416,30.0414 28.5,28.5C 31.7212,24.8058 33.7212,20.4725 34.5,15.5C 35.8734,15.3433 37.2068,15.51 38.5,16C 39.9451,19.2698 41.9451,22.1032 44.5,24.5 Z"/></g>
<g><path style="opacity:1" fill="#29a0fa" d="M 44.5,28.5 C 44.8588,30.371 45.8588,31.871 47.5,33C 53.019,33.6086 57.3524,36.1086 60.5,40.5C 60.3918,41.4419 60.0585,42.2753 59.5,43C 55.462,44.3522 51.7954,46.1855 48.5,48.5C 43.4393,48.685 41.1059,51.3517 41.5,56.5C 43.1759,57.7276 43.5092,59.0609 42.5,60.5C 40.5714,60.2308 38.9047,60.7308 37.5,62C 33.8333,62.6667 30.1667,62.6667 26.5,62C 28.8333,61.6667 31.1667,61.3333 33.5,61C 34.0219,60.4387 34.3552,59.772 34.5,59C 32.5145,56.0291 31.0145,52.8624 30,49.5C 27.5786,47.3034 24.7452,45.97 21.5,45.5C 17.4956,45.1707 14.4956,43.3374 12.5,40C 12.5699,39.2352 12.9033,38.7352 13.5,38.5C 18.7645,37.0202 23.7645,34.8535 28.5,32C 32.171,28.1237 35.0044,23.6237 37,18.5C 38.9455,22.2748 41.4455,25.6081 44.5,28.5 Z"/></g>
<g><path style="opacity:1" fill="#d3ecfe" d="M 59.5,14.5 C 57.0966,15.0646 55.4299,16.5646 54.5,19C 55.385,21.1566 57.0516,21.9899 59.5,21.5C 61.0174,21.5106 62.1841,22.1772 63,23.5C 63.0995,25.6526 63.9328,27.3192 65.5,28.5C 65.8373,31.3357 67.1707,32.0024 69.5,30.5C 69.5,31.5 69.5,32.5 69.5,33.5C 67.2075,33.7564 65.0408,33.4231 63,32.5C 62.5026,29.854 62.3359,27.1873 62.5,24.5C 59.6807,23.5063 56.8474,22.5063 54,21.5C 53.5034,19.1902 53.3367,16.8568 53.5,14.5C 55.5,14.5 57.5,14.5 59.5,14.5 Z"/></g>
<g><path style="opacity:1" fill="#935dff" d="M 115.5,25.5 C 119.821,25.2275 123.988,25.8942 128,27.5C 128.95,26.9777 129.784,26.311 130.5,25.5C 131.833,28.8333 131.833,32.1667 130.5,35.5C 126.137,26.9798 120.304,25.6465 113,31.5C 111,37.5 111,43.5 113,49.5C 117.644,54.4374 122.644,54.7707 128,50.5C 128.914,48.3359 130.081,46.3359 131.5,44.5C 132.833,48.1667 132.833,51.8333 131.5,55.5C 130.833,54.5 130.167,53.5 129.5,52.5C 120.485,57.5213 112.651,56.1879 106,48.5C 102.077,37.6988 105.244,30.0322 115.5,25.5 Z"/></g>
<g><path style="opacity:1" fill="#9058ff" d="M 183.5,41.5 C 181.735,40.5386 179.735,40.2053 177.5,40.5C 177.187,44.0419 177.521,47.3752 178.5,50.5C 178.953,51.4584 179.619,52.2917 180.5,53C 187.278,54.9244 191.945,52.7578 194.5,46.5C 195.321,49.4465 195.321,52.4465 194.5,55.5C 182.495,55.6665 170.495,55.4999 158.5,55C 154.968,50.6398 151.301,46.4732 147.5,42.5C 147.44,41.9569 147.107,41.6236 146.5,41.5C 145.197,44.6447 145.197,47.6447 146.5,50.5C 146.414,51.4959 146.748,52.3292 147.5,53C 148.938,53.2189 150.271,53.7189 151.5,54.5C 146.5,55.8333 141.5,55.8333 136.5,54.5C 137.628,53.7379 138.795,53.0712 140,52.5C 140.667,44.5 140.667,36.5 140,28.5C 138.795,27.9288 137.628,27.2621 136.5,26.5C 142.807,25.3361 149.141,25.1694 155.5,26C 161.155,27.875 162.989,31.7084 161,37.5C 159.189,39.5433 157.022,41.0433 154.5,42C 157.734,45.1446 160.734,48.4779 163.5,52C 166.289,53.6636 169.123,53.8302 172,52.5C 172.667,44.5 172.667,36.5 172,28.5C 170.795,27.9288 169.628,27.2621 168.5,26.5C 176.807,25.5021 185.14,25.1688 193.5,25.5C 193.813,28.2469 193.48,30.9135 192.5,33.5C 192.085,30.9208 190.752,29.0874 188.5,28C 185.183,27.5017 181.85,27.335 178.5,27.5C 178.5,31.1667 178.5,34.8333 178.5,38.5C 182.49,39.3845 185.323,38.0511 187,34.5C 187.667,38.1667 187.667,41.8333 187,45.5C 186.502,43.4556 185.335,42.1223 183.5,41.5 Z"/></g>
<g><path style="opacity:1" fill="#925bff" d="M 211.5,25.5 C 212.822,25.33 213.989,25.6634 215,26.5C 218.5,34.8333 222,43.1667 225.5,51.5C 226.833,52.5 228.167,53.5 229.5,54.5C 224.833,55.8333 220.167,55.8333 215.5,54.5C 216.325,53.6143 217.325,53.281 218.5,53.5C 219.513,47.8713 217.179,45.5379 211.5,46.5C 205.493,45.1734 203.16,47.5067 204.5,53.5C 205.675,53.281 206.675,53.6143 207.5,54.5C 203.833,55.8333 200.167,55.8333 196.5,54.5C 198.193,53.7717 199.693,52.7717 201,51.5C 204.239,42.6945 207.739,34.0278 211.5,25.5 Z"/></g>
<g><path style="opacity:1" fill="#9058ff" d="M 230.5,25.5 C 240.5,25.5 250.5,25.5 260.5,25.5C 260.664,28.1873 260.497,30.854 260,33.5C 259.768,32.2625 259.268,31.2625 258.5,30.5C 257.942,29.2101 256.942,28.3768 255.5,28C 253.19,27.5034 250.857,27.3367 248.5,27.5C 248.334,35.84 248.5,44.1733 249,52.5C 250.509,53.0897 252.009,53.7564 253.5,54.5C 248.167,55.8333 242.833,55.8333 237.5,54.5C 238.736,53.6433 240.069,52.9766 241.5,52.5C 242.498,44.1932 242.831,35.8599 242.5,27.5C 239.813,27.3359 237.146,27.5026 234.5,28C 232.859,29.129 231.859,30.629 231.5,32.5C 230.532,30.3926 230.198,28.0593 230.5,25.5 Z"/></g>
<g><path style="opacity:1" fill="#945dff" d="M 263.5,25.5 C 267.884,25.1744 272.217,25.5078 276.5,26.5C 275.758,27.2868 274.925,27.9535 274,28.5C 273.333,36.5 273.333,44.5 274,52.5C 275.205,53.0712 276.372,53.7379 277.5,54.5C 272.833,55.8333 268.167,55.8333 263.5,54.5C 264.628,53.7379 265.795,53.0712 267,52.5C 267.667,44.5 267.667,36.5 267,28.5C 265.271,28.0257 264.105,27.0257 263.5,25.5 Z"/></g>
<g><path style="opacity:1" fill="#925bff" d="M 294.5,42.5 C 293.081,41.5489 291.415,41.2155 289.5,41.5C 289.19,44.7131 289.523,47.7131 290.5,50.5C 290.414,51.4959 290.748,52.3292 291.5,53C 292.938,53.2189 294.271,53.7189 295.5,54.5C 290.5,55.8333 285.5,55.8333 280.5,54.5C 281.628,53.7379 282.795,53.0712 284,52.5C 284.667,44.5 284.667,36.5 284,28.5C 282.795,27.9288 281.628,27.2621 280.5,26.5C 288.472,25.5023 296.472,25.169 304.5,25.5C 304.813,28.2469 304.48,30.9135 303.5,33.5C 303.085,30.9208 301.752,29.0874 299.5,28C 296.518,27.502 293.518,27.3354 290.5,27.5C 290.5,31.5 290.5,35.5 290.5,39.5C 294.796,40.3553 297.463,38.6886 298.5,34.5C 299.833,38.5 299.833,42.5 298.5,46.5C 297.995,44.2305 296.662,42.8972 294.5,42.5 Z"/></g>
<g><path style="opacity:1" fill="#935cff" d="M 305.5,25.5 C 309.884,25.1744 314.217,25.5078 318.5,26.5C 317.675,27.3857 316.675,27.719 315.5,27.5C 317.042,32.2492 319.375,36.5825 322.5,40.5C 325.641,36.5475 327.975,32.2141 329.5,27.5C 328.325,27.719 327.325,27.3857 326.5,26.5C 336.401,24.2496 337.901,25.9162 331,31.5C 328.667,35.5 326.333,39.5 324,43.5C 323.333,46.5 323.333,49.5 324,52.5C 325.205,53.0712 326.372,53.7379 327.5,54.5C 323.205,55.6609 318.871,55.8275 314.5,55C 317.384,51.4027 318.218,47.236 317,42.5C 313.629,36.3929 309.795,30.7262 305.5,25.5 Z"/></g>
<g><path style="opacity:1" fill="#f6f0ff" d="M 145.5,27.5 C 154.551,26.0423 157.551,29.5423 154.5,38C 151.649,39.2886 148.649,39.7886 145.5,39.5C 145.5,35.5 145.5,31.5 145.5,27.5 Z"/></g>
<g><path style="opacity:1" fill="#d2bbff" d="M 260.5,25.5 C 261.477,28.2869 261.81,31.2869 261.5,34.5C 260.5,34.5 259.5,34.5 258.5,34.5C 258.5,33.1667 258.5,31.8333 258.5,30.5C 259.268,31.2625 259.768,32.2625 260,33.5C 260.497,30.854 260.664,28.1873 260.5,25.5 Z"/></g>
<g><path style="opacity:1" fill="#c4a6ff" d="M 230.5,25.5 C 230.198,28.0593 230.532,30.3926 231.5,32.5C 231.631,33.3764 231.298,34.0431 230.5,34.5C 229.197,31.3553 229.197,28.3553 230.5,25.5 Z"/></g>
<g><path style="opacity:1" fill="#f1e9ff" d="M 210.5,33.5 C 211.75,33.5774 212.583,34.244 213,35.5C 214.145,38.4318 214.978,41.4318 215.5,44.5C 212.428,44.8174 209.428,44.4841 206.5,43.5C 208.4,40.3707 209.733,37.0373 210.5,33.5 Z"/></g>
<g><path style="opacity:1" fill="#e0e9f1" d="M 44.5,25.5 C 46.7531,26.7433 48.7531,28.41 50.5,30.5C 52.0453,31.4519 53.712,31.7852 55.5,31.5C 55.5,32.5 55.5,33.5 55.5,34.5C 58.1873,34.3359 60.854,34.5026 63.5,35C 64.8741,38.4101 65.5408,38.2434 65.5,34.5C 72.7546,34.1868 79.9213,34.5201 87,35.5C 87.6667,38.1667 87.6667,40.8333 87,43.5C 83.7826,47.2441 79.9493,49.9108 75.5,51.5C 73.9951,52.8415 73.3285,54.5082 73.5,56.5C 72.8333,55.8333 72.1667,55.1667 71.5,54.5C 70.8333,54.5 70.1667,54.5 69.5,54.5C 69.0773,52.2188 69.744,50.5521 71.5,49.5C 76.8284,47.0596 81.4951,43.7262 85.5,39.5C 84.2776,37.0217 82.2776,36.0217 79.5,36.5C 79.1156,38.9294 78.449,41.2627 77.5,43.5C 76.1266,43.3433 74.7932,43.51 73.5,44C 71.7427,45.7495 69.7427,46.9162 67.5,47.5C 66.8333,47.8333 66.1667,48.1667 65.5,48.5C 63.5,48.5 61.5,48.5 59.5,48.5C 59.5,49.5 59.5,50.5 59.5,51.5C 55.678,51.9376 52.0114,52.9376 48.5,54.5C 47.1667,54.1667 45.8333,53.8333 44.5,53.5C 45.8569,51.8144 47.1902,50.1477 48.5,48.5C 51.7954,46.1855 55.462,44.3522 59.5,43C 60.0585,42.2753 60.3918,41.4419 60.5,40.5C 57.3524,36.1086 53.019,33.6086 47.5,33C 45.8588,31.871 44.8588,30.371 44.5,28.5C 44.5,27.5 44.5,26.5 44.5,25.5 Z"/></g>
<g><path style="opacity:1" fill="#ba97ff" d="M 183.5,41.5 C 181.833,41.5 180.167,41.5 178.5,41.5C 178.5,44.5 178.5,47.5 178.5,50.5C 177.521,47.3752 177.187,44.0419 177.5,40.5C 179.735,40.2053 181.735,40.5386 183.5,41.5 Z"/></g>
<g><path style="opacity:1" fill="#c4a7ff" d="M 147.5,42.5 C 146.527,44.9479 146.194,47.6146 146.5,50.5C 145.197,47.6447 145.197,44.6447 146.5,41.5C 147.107,41.6236 147.44,41.9569 147.5,42.5 Z"/></g>
<g><path style="opacity:1" fill="#c8aeff" d="M 294.5,42.5 C 293.167,42.5 291.833,42.5 290.5,42.5C 290.5,45.1667 290.5,47.8333 290.5,50.5C 289.523,47.7131 289.19,44.7131 289.5,41.5C 291.415,41.2155 293.081,41.5489 294.5,42.5 Z"/></g>
<g><path style="opacity:1" fill="#a4c9f9" d="M 71.5,49.5 C 70.8166,47.8235 69.4832,47.1568 67.5,47.5C 69.7427,46.9162 71.7427,45.7495 73.5,44C 74.7932,43.51 76.1266,43.3433 77.5,43.5C 78.449,41.2627 79.1156,38.9294 79.5,36.5C 82.2776,36.0217 84.2776,37.0217 85.5,39.5C 81.4951,43.7262 76.8284,47.0596 71.5,49.5 Z"/></g>
<g><path style="opacity:1" fill="#e1e8ef" d="M 23.5,47.5 C 25.0481,47.8212 25.7148,48.8212 25.5,50.5C 26.675,50.281 27.675,50.6143 28.5,51.5C 30.8738,54.0283 31.8738,57.0283 31.5,60.5C 26.4584,60.2617 21.6251,60.9283 17,62.5C 12.1713,59.9254 10.0046,61.2587 10.5,66.5C 17.3425,67.1469 23.8425,66.1469 30,63.5C 35.1665,65.84 39.3332,64.84 42.5,60.5C 49.3291,59.0572 55.8291,56.7239 62,53.5C 62.7494,54.635 62.5827,55.635 61.5,56.5C 58.2418,56.7833 56.2418,58.4499 55.5,61.5C 56.0998,62.8999 57.0998,63.8999 58.5,64.5C 55.5371,64.8493 53.2038,63.8493 51.5,61.5C 48.4291,63.18 45.0958,63.8467 41.5,63.5C 41.5,64.8333 41.5,66.1667 41.5,67.5C 37.774,67.1774 34.1073,67.5108 30.5,68.5C 30.2907,69.086 29.9574,69.586 29.5,70C 22.8417,70.4996 16.175,70.6663 9.5,70.5C 8.8875,66.837 8.72084,63.1703 9,59.5C 13.4767,57.0384 17.9767,54.5384 22.5,52C 23.3802,50.6439 23.7135,49.1439 23.5,47.5 Z"/></g>
<g><path style="opacity:1" fill="#8ec1f9" d="M 48.5,48.5 C 47.1902,50.1477 45.8569,51.8144 44.5,53.5C 45.8333,53.8333 47.1667,54.1667 48.5,54.5C 52.0114,52.9376 55.678,51.9376 59.5,51.5C 59.5,50.5 59.5,49.5 59.5,48.5C 61.5,48.5 63.5,48.5 65.5,48.5C 64.7703,50.045 63.437,50.8784 61.5,51C 63.3959,52.8083 63.8959,54.975 63,57.5C 60.0374,58.0256 57.5374,59.359 55.5,61.5C 56.2418,58.4499 58.2418,56.7833 61.5,56.5C 62.5827,55.635 62.7494,54.635 62,53.5C 55.8291,56.7239 49.3291,59.0572 42.5,60.5C 43.5092,59.0609 43.1759,57.7276 41.5,56.5C 41.1059,51.3517 43.4393,48.685 48.5,48.5 Z"/></g>
<g><path style="opacity:1" fill="#4ea7f4" d="M 67.5,47.5 C 69.4832,47.1568 70.8166,47.8235 71.5,49.5C 69.744,50.5521 69.0773,52.2188 69.5,54.5C 67.9582,55.3007 66.2915,55.634 64.5,55.5C 64.67,56.8221 64.3366,57.9887 63.5,59C 56.6937,60.7505 56.3604,62.4172 62.5,64C 63.6508,66.1193 65.1508,67.9527 67,69.5C 68.1882,68.4366 68.6882,67.1033 68.5,65.5C 71.0037,64.3608 73.6703,63.6941 76.5,63.5C 74.9087,64.2189 73.4087,65.2189 72,66.5C 68.9416,75.7991 65.9416,75.7991 63,66.5C 61.6703,65.4178 60.1703,64.7512 58.5,64.5C 57.0998,63.8999 56.0998,62.8999 55.5,61.5C 57.5374,59.359 60.0374,58.0256 63,57.5C 63.8959,54.975 63.3959,52.8083 61.5,51C 63.437,50.8784 64.7703,50.045 65.5,48.5C 66.1667,48.1667 66.8333,47.8333 67.5,47.5 Z"/></g>
<g><path style="opacity:1" fill="#27a1fe" d="M 69.5,54.5 C 70.1667,54.5 70.8333,54.5 71.5,54.5C 71.33,55.8221 71.6634,56.9887 72.5,58C 74.519,58.4497 76.3523,59.283 78,60.5C 78.2387,61.788 77.7387,62.788 76.5,63.5C 73.6703,63.6941 71.0037,64.3608 68.5,65.5C 68.6882,67.1033 68.1882,68.4366 67,69.5C 65.1508,67.9527 63.6508,66.1193 62.5,64C 56.3604,62.4172 56.6937,60.7505 63.5,59C 64.3366,57.9887 64.67,56.8221 64.5,55.5C 66.2915,55.634 67.9582,55.3007 69.5,54.5 Z"/></g>
<g><path style="opacity:1" fill="#92d1fe" d="M 71.5,54.5 C 72.1667,55.1667 72.8333,55.8333 73.5,56.5C 75.2905,57.3913 77.1239,58.3913 79,59.5C 79.49,60.7932 79.6567,62.1266 79.5,63.5C 78.5,63.5 77.5,63.5 76.5,63.5C 77.7387,62.788 78.2387,61.788 78,60.5C 76.3523,59.283 74.519,58.4497 72.5,58C 71.6634,56.9887 71.33,55.8221 71.5,54.5 Z"/></g>
<g><path style="opacity:1" fill="#8dbff6" d="M 21.5,45.5 C 24.7452,45.97 27.5786,47.3034 30,49.5C 31.0145,52.8624 32.5145,56.0291 34.5,59C 34.3552,59.772 34.0219,60.4387 33.5,61C 31.1667,61.3333 28.8333,61.6667 26.5,62C 30.1667,62.6667 33.8333,62.6667 37.5,62C 38.9047,60.7308 40.5714,60.2308 42.5,60.5C 39.3332,64.84 35.1665,65.84 30,63.5C 23.8425,66.1469 17.3425,67.1469 10.5,66.5C 10.0046,61.2587 12.1713,59.9254 17,62.5C 21.6251,60.9283 26.4584,60.2617 31.5,60.5C 31.8738,57.0283 30.8738,54.0283 28.5,51.5C 27.675,50.6143 26.675,50.281 25.5,50.5C 25.7148,48.8212 25.0481,47.8212 23.5,47.5C 22.5,47.1667 21.8333,46.5 21.5,45.5 Z"/></g>
</svg>
